# xmcd
#
# Track frame offsets:
# 150
# 11089
# 23669
# 41327
# 54276
# 68186
# 79947
# 109520
# 134593
# 167458
# 201382
#
# Disc length: 2940 seconds
#
# Revision: 1
# Processed by: cddbd v1.4PL0 Copyright (c) Steve Scherf et al.
# Submitted via: CedeCatalogueitor 2.5 http://usuarios.lycos.es/kakasboy
#
DISCID=8a0b7a0b
DTITLE=Bob Dylan - Bringing It All Back Home
DYEAR=1900
DGENRE=
TTITLE0=Subterranean Homesick Blues
TTITLE1=She Belongs To Me
TTITLE2=Maggie's Farm
TTITLE3=Love Minus Zero/No Limits
TTITLE4=Outlaw Blues
TTITLE5=On The Road Again
TTITLE6=Bob Dylan's 115th Dream
TTITLE7=Mr. Tambourine Man
TTITLE8=Gates Of Eden
TTITLE9=It's Alright, Ma (I'm Only Bleeding)
TTITLE10=It's All Over Now, Baby Blue
EXTD=
EXTT0=
EXTT1=
EXTT2=
EXTT3=
EXTT4=
EXTT5=
EXTT6=
EXTT7=
EXTT8=
EXTT9=
EXTT10=
PLAYORDER=
